<svg width="120" height="24" viewBox="0 0 120 24" fill="none" xmlns="http://www.w3.org/2000/svg">
<path d="M29.0568 5.25388H31.8961V16.0721H37.1585V18.5138H29.0568V5.25388Z" fill="#2E343F"/>
<path d="M38.4367 16.2615C38.002 15.4605 37.7831 14.5602 37.8016 13.649C37.7831 12.7379 38.002 11.8376 38.4367 11.0366C38.85 10.2881 39.4759 9.67895 40.2353 9.28601C41.0768 8.88031 41.9989 8.66962 42.9331 8.66962C43.8673 8.66962 44.7895 8.88031 45.631 9.28601C46.3892 9.68051 47.0147 10.2893 47.4296 11.0366C47.8622 11.8383 48.0801 12.7382 48.062 13.649C48.0823 14.5635 47.8643 15.4675 47.4296 16.2722C47.0119 17.0147 46.3869 17.6193 45.631 18.0121C44.7895 18.4178 43.8673 18.6285 42.9331 18.6285C41.9989 18.6285 41.0768 18.4178 40.2353 18.0121C39.4759 17.6191 38.85 17.01 38.4367 16.2615ZM45.3562 13.649C45.3862 12.9159 45.1502 12.1965 44.6917 11.6236C44.4759 11.371 44.2054 11.1707 43.9007 11.038C43.596 10.9053 43.2652 10.8437 42.9331 10.8578C42.6014 10.8444 42.271 10.9075 41.9674 11.0422C41.6639 11.1768 41.3954 11.3794 41.1826 11.6343C40.7268 12.2081 40.4945 12.9277 40.5288 13.6597C40.4945 14.3917 40.7268 15.1113 41.1826 15.6851C41.3954 15.94 41.6639 16.1426 41.9674 16.2773C42.271 16.4119 42.6014 16.475 42.9331 16.4617C43.2669 16.4731 43.5988 16.4082 43.9036 16.2717C44.2084 16.1353 44.478 15.931 44.6917 15.6744C45.1502 15.1015 45.3862 14.3822 45.3562 13.649Z" fill="#2E343F"/>
<path d="M49.7939 16.2615C49.3592 15.4605 49.1403 14.5602 49.1588 13.649C49.1403 12.7379 49.3592 11.8376 49.7939 11.0366C50.2072 10.2881 50.8331 9.67896 51.5925 9.28602C52.4335 8.88036 53.3552 8.66968 54.289 8.66968C55.2228 8.66968 56.1445 8.88036 56.9855 9.28602C57.7449 9.67896 58.3708 10.2881 58.7841 11.0366C59.2188 11.8376 59.4377 12.7379 59.4192 13.649C59.4399 14.5639 59.221 15.4682 58.7841 16.2722C58.368 17.0158 57.7426 17.6208 56.9855 18.0121C56.1445 18.4177 55.2228 18.6284 54.289 18.6284C53.3552 18.6284 52.4335 18.4177 51.5925 18.0121C50.8331 17.6191 50.2072 17.01 49.7939 16.2615ZM56.7134 13.649C56.7464 12.9172 56.5143 12.198 56.0596 11.6236C55.836 11.379 55.564 11.1836 55.2607 11.0499C54.9575 10.9162 54.6297 10.8472 54.2984 10.8472C53.967 10.8472 53.6392 10.9162 53.336 11.0499C53.0327 11.1836 52.7607 11.379 52.5371 11.6236C52.0872 12.1999 51.8599 12.9189 51.8967 13.649C51.8629 14.3805 52.0941 15.0997 52.5478 15.6745C52.7713 15.9191 53.0434 16.1145 53.3466 16.2482C53.6499 16.3819 53.9776 16.4509 54.309 16.4509C54.6404 16.4509 54.9682 16.3819 55.2714 16.2482C55.5747 16.1145 55.8467 15.9191 56.0703 15.6745C56.5211 15.0986 56.7494 14.3795 56.7134 13.649Z" fill="#2E343F"/>
<path d="M63.5634 5.25388V12.9285L67.3874 8.78433H70.3789L66.9098 12.5896L70.5763 18.5138H67.4835L65.0231 14.5777L63.5634 16.1468V18.5138H60.8949V5.25388H63.5634Z" fill="#2E343F"/>
<path d="M73.8613 16.3176C74.2921 16.6035 74.8016 16.7472 75.3183 16.7285C75.7784 16.7522 76.237 16.6605 76.6526 16.4617C76.8057 16.3924 76.935 16.2795 77.0242 16.1371C77.1134 15.9947 77.1587 15.8291 77.1542 15.6611C77.1624 15.5553 77.1462 15.4491 77.1069 15.3506C77.0676 15.252 77.0062 15.1638 76.9274 15.0927C76.7376 14.9535 76.517 14.8619 76.2843 14.8259C76.0175 14.7698 75.5531 14.7031 74.9207 14.6284C74.1985 14.5416 73.4845 14.3962 72.7859 14.1934C72.2647 14.0436 71.7937 13.7559 71.4223 13.3609C71.0656 12.9388 70.8824 12.397 70.9099 11.8451C70.903 11.2437 71.0901 10.656 71.4436 10.1693C71.8161 9.66336 72.3239 9.27298 72.9086 9.04319C73.6008 8.76719 74.3411 8.63202 75.0861 8.64558C76.4115 8.65803 77.4789 8.94178 78.2884 9.49683C78.6771 9.74807 78.9996 10.0893 79.2286 10.4915C79.4576 10.8938 79.5863 11.3452 79.6039 11.8078H77.0689C77.0485 11.6236 76.9859 11.4467 76.8859 11.2907C76.7859 11.1347 76.6513 11.0039 76.4925 10.9085C76.0929 10.6607 75.628 10.5389 75.1582 10.5589C74.7334 10.5392 74.3114 10.6371 73.9387 10.8418C73.7996 10.9138 73.6828 11.0224 73.6009 11.156C73.5191 11.2896 73.4753 11.443 73.4743 11.5996C73.4683 11.6985 73.4876 11.7973 73.5306 11.8865C73.5736 11.9757 73.6388 12.0524 73.7199 12.1093C73.9146 12.2359 74.1337 12.3204 74.363 12.3575C74.6298 12.4055 75.0701 12.4642 75.6972 12.5256C77.0101 12.6786 78.0171 12.9597 78.718 13.3689C79.4172 13.7798 79.7667 14.4816 79.7667 15.4797C79.7759 16.082 79.5792 16.6695 79.209 17.1448C78.8026 17.6494 78.2654 18.0325 77.6559 18.2522C76.9202 18.5246 76.14 18.6567 75.3557 18.6419C74.0054 18.6419 72.9077 18.3421 72.0627 17.7426C71.661 17.4697 71.3303 17.1047 71.0982 16.6782C70.8661 16.2516 70.7393 15.7757 70.7284 15.2902H73.2449C73.263 15.497 73.3279 15.6969 73.4347 15.8749C73.5415 16.0529 73.6874 16.2043 73.8613 16.3176Z" fill="#2E343F"/>
<path d="M85.9177 18.6285C84.9966 18.6493 84.0851 18.4373 83.2678 18.0121C82.5242 17.6143 81.9151 17.0051 81.5173 16.2615C81.0969 15.4559 80.8858 14.5576 80.9035 13.6491C80.8833 12.7377 81.0945 11.8362 81.5173 11.0286C81.9192 10.2864 82.5321 9.68003 83.2785 9.28602C84.1021 8.85979 85.0199 8.6478 85.947 8.66959C87.2475 8.66959 88.3069 9.00138 89.1252 9.66495C89.9623 10.3568 90.5043 11.3415 90.6409 12.4189H87.8683C87.7763 11.9718 87.5366 11.5686 87.1879 11.2741C86.8299 10.9831 86.3787 10.8314 85.9177 10.8471C85.5986 10.8363 85.2814 10.9011 84.9921 11.036C84.7027 11.1709 84.4493 11.3723 84.2525 11.6236C83.8154 12.2057 83.5946 12.9219 83.6281 13.6491C83.5946 14.3762 83.8154 15.0924 84.2525 15.6745C84.4482 15.9278 84.7011 16.1312 84.9906 16.268C85.28 16.4048 85.5977 16.4712 85.9177 16.4617C86.3883 16.4782 86.849 16.3237 87.2146 16.0267C87.5709 15.7197 87.8088 15.2977 87.887 14.8339H90.6329C90.5082 15.923 89.9693 16.9224 89.1279 17.6252C88.3006 18.2941 87.2306 18.6285 85.9177 18.6285Z" fill="#2E343F"/>
<path d="M92.1913 16.2615C91.7567 15.4605 91.5378 14.5602 91.5562 13.649C91.5378 12.7379 91.7567 11.8376 92.1913 11.0366C92.6047 10.2881 93.2306 9.67896 93.9899 9.28602C94.831 8.88036 95.7527 8.66968 96.6865 8.66968C97.6202 8.66968 98.542 8.88036 99.383 9.28602C100.142 9.67896 100.768 10.2881 101.182 11.0366C101.616 11.8376 101.835 12.7379 101.817 13.649C101.837 14.5639 101.618 15.4682 101.182 16.2722C100.769 17.0139 100.148 17.6187 99.3963 18.0121C98.5553 18.4177 97.6336 18.6284 96.6998 18.6284C95.766 18.6284 94.8443 18.4177 94.0033 18.0121C93.239 17.6213 92.6082 17.0119 92.1913 16.2615ZM99.1108 13.649C99.1439 12.9172 98.9117 12.198 98.457 11.6236C98.2335 11.379 97.9614 11.1836 97.6582 11.0499C97.355 10.9162 97.0272 10.8472 96.6958 10.8472C96.3644 10.8472 96.0367 10.9162 95.7334 11.0499C95.4302 11.1836 95.1581 11.379 94.9346 11.6236C94.4808 12.1984 94.2497 12.9176 94.2835 13.649C94.2497 14.3805 94.4808 15.0997 94.9346 15.6745C95.1581 15.9191 95.4302 16.1145 95.7334 16.2482C96.0367 16.3819 96.3644 16.4509 96.6958 16.4509C97.0272 16.4509 97.355 16.3819 97.6582 16.2482C97.9614 16.1145 98.2335 15.9191 98.457 15.6745C98.9127 15.1004 99.1458 14.3812 99.1135 13.649H99.1108Z" fill="#2E343F"/>
<path d="M112.456 18.5138H110.092L109.844 17.3396C109.502 17.7637 109.065 18.1014 108.569 18.3253C108.072 18.5492 107.53 18.6531 106.986 18.6285C106.475 18.648 105.965 18.565 105.486 18.3845C105.008 18.2039 104.57 17.9294 104.2 17.5771C103.488 16.878 103.132 15.7074 103.132 14.0653V8.78433H105.801V13.7424C105.801 14.6284 105.956 15.2928 106.265 15.7412C106.426 15.9663 106.642 16.1463 106.893 16.264C107.143 16.3818 107.419 16.4333 107.695 16.4136C107.996 16.4271 108.294 16.3659 108.565 16.2355C108.835 16.1051 109.069 15.9096 109.246 15.6664C109.614 15.1674 109.796 14.4683 109.796 13.5743V8.78433H112.464L112.456 18.5138Z" fill="#2E343F"/>
<path d="M113.403 11.0366V8.78433H115.005V6.05444H117.673V8.78433H119.888V11.0366H117.673V15.3062C117.649 15.5711 117.726 15.8352 117.889 16.0454C117.99 16.1301 118.106 16.1938 118.232 16.2328C118.357 16.2717 118.49 16.2851 118.62 16.2722H120V18.5244H117.809C115.952 18.5244 115.024 17.5967 115.026 15.7412V11.0366H113.403Z" fill="#2E343F"/>
<path d="M13.8564 3.20078L0 11.2008V6.40078L9.70256 0.800781L13.8564 3.20078Z" fill="#2E343F"/>
<path d="M19.4051 6.40078V9.17001L2.4 18.9854L0 17.6008V14.9957L17.1385 5.09822L19.4051 6.40078Z" fill="#2E343F"/>
<path d="M5.68205 20.8828L19.4051 12.9649V17.6008L9.70256 23.2008L5.68205 20.8828Z" fill="#2E343F"/>
</svg>
